# xmcd CD database file
#
# Track frame offsets:
#	182
#	12707
#	24965
#	42097
#	56552
#	74802
#	91092
#	106700
#	123240
#	136317
#
# Disc length: 2002 seconds
#
# Revision: 10
# Processed by: cddbd v1.5.2PL0 Copyright (c) Steve Scherf et al.
# Submitted via: CDex 1.88
#
DISCID=7f07d00a
DTITLE=Tanya Tucker - Greatest Hits
DYEAR=1989
DGENRE=Country
TTITLE0=Daddy And Home
TTITLE1=Strong Enough To Bend
TTITLE2=Love Me Like You Used To
TTITLE3=Just Another Love
TTITLE4=I'll Come Back As Another Woman
TTITLE5=My Arms Stay Open All Night
TTITLE6=If It Don't Come Easy
TTITLE7=Tanya Tucker with Paul Overstreet and Paul Davis - I Won't Take Less Than Your Love
TTITLE8=One Love At A Time
TTITLE9=It's Only Over For You
EXTD=YEAR: 1989
EXTT0=
EXTT1=
EXTT2=
EXTT3=
EXTT4=
EXTT5=
EXTT6=
EXTT7=
EXTT8=
EXTT9=
PLAYORDER=
